<svg width="114" height="100" viewBox="0 0 114 100" fill="none" xmlns="http://www.w3.org/2000/svg">
<g opacity="0.2">
<path fill-rule="evenodd" clip-rule="evenodd" d="M103.137 79.6646C102.401 80.2406 102.056 81.0753 101.908 82.0135C101.827 82.531 101.354 82.6018 100.999 82.6927C100.691 82.7718 100.407 82.7821 100.159 83.0359C100.056 83.1411 99.7348 83.164 99.6 83.0818C99.1687 82.8189 98.7069 82.6267 98.3087 82.276C96.9067 81.0425 95.8792 79.5167 94.9172 77.9601C93.9359 76.3719 92.9087 74.8007 92.1571 73.0781C91.9235 72.542 91.914 72.5463 92.5023 72.13C92.9807 73.0397 93.4267 73.9633 93.943 74.8458C94.3526 75.546 94.848 76.1952 95.347 76.9278C95.4644 76.6329 95.4616 76.4439 95.2794 76.181C94.287 74.7473 93.3448 73.2813 92.5976 71.6025C92.717 71.5247 92.8613 71.4302 93.0048 71.3369C93.038 71.3653 93.1119 71.4294 93.2385 71.5389V70.9411C93.5931 70.8703 93.9146 70.8067 94.3329 70.7236C94.659 70.8759 94.814 71.4531 95.3509 71.5247C95.3335 72.1086 95.844 72.3996 96.1006 72.8262C96.4188 73.3552 96.8502 73.8158 97.1554 74.2069C97.5002 74.161 97.758 74.1128 98.0181 74.0946C98.9314 74.0305 98.9093 74.0594 99.4782 74.5611C100.11 75.1186 100.543 75.8987 101.358 76.2529C101.411 76.2755 101.469 76.3553 101.472 76.4111C101.497 76.9978 101.826 77.2109 102.377 77.3532C102.839 77.473 102.97 77.9601 102.992 78.4393C103.009 78.8066 103.076 79.1716 103.137 79.6646Z" fill="#FCB912"/>
<path fill-rule="evenodd" clip-rule="evenodd" d="M21.6042 11.5175C22.2581 11.8449 22.2581 11.8449 22.61 11.1597C23.0572 11.0063 23.5976 11.3151 24.0021 10.9043C24.4572 11.0178 24.9063 11.172 25.3681 11.2356C26.1138 11.338 26.4989 11.9149 26.92 12.4004C27.2058 12.7301 27.5051 13.0611 27.7665 13.4193C28.0721 13.8384 28.4374 14.2132 28.7442 14.6311C29.0222 15.0098 29.2598 15.4191 29.5065 15.82C29.5749 15.9315 29.6627 16.0671 29.6528 16.1841C29.6263 16.4957 29.7342 16.7056 29.9556 16.929C30.3815 17.3584 30.3482 17.9886 30.4961 18.5247C30.6333 19.0245 30.5546 19.5942 30.5103 20.1283C30.4937 20.3324 30.4669 20.7677 30.0177 20.4466C29.9861 20.4237 29.8291 20.5909 29.7212 20.6542C29.6073 20.7206 29.4128 20.8475 29.3725 20.8123C28.8988 20.3964 28.7834 20.6937 28.5667 21.1049C28.248 21.7102 28.0535 21.6655 27.1979 21.5129C26.6772 21.4196 26.1253 21.4034 25.8204 20.9515C24.9961 19.7298 24.1516 18.5164 24.0373 16.9547C23.9918 16.3288 23.8171 15.6757 23.3007 15.2257C22.8559 14.8379 22.5606 14.2835 21.9533 14.0673C21.7702 14.002 21.6362 13.7838 21.4939 13.6229C21.1914 13.2797 21.0289 12.8982 21.021 12.4154C21.0127 11.9141 21.4089 11.8018 21.6042 11.5175Z" fill="#FCB912"/>
<path fill-rule="evenodd" clip-rule="evenodd" d="M91.4897 52.3523C90.956 51.8186 90.508 51.2959 89.9857 50.8625C88.4877 49.6195 87.7764 47.8609 86.8805 46.224C86.478 45.489 86.5931 44.6635 86.6105 43.8684C86.6136 43.7304 86.8042 43.5964 86.9157 43.4517C87.0679 43.753 87.2106 44.0352 87.419 44.4472V42.9753C87.7325 42.8199 88.0421 42.7353 88.2532 42.5431C88.5154 42.3047 88.8115 42.3518 89.0519 42.4122C89.3318 42.4826 89.5706 42.7163 89.8521 42.895C89.6872 43.6676 89.9913 44.3144 90.3681 44.9885C90.7053 44.8972 91.1035 45.1368 91.4411 44.7904C91.5127 44.7169 91.7475 44.7109 91.8487 44.7718C92.6759 45.2696 93.6908 45.5337 94.1091 46.5554C94.1842 46.7396 94.2676 46.9776 94.4187 47.0595C94.6464 47.1828 94.442 47.5679 94.833 47.5829C95.1549 47.5952 94.9493 47.9233 95.007 48.1021C95.0785 48.3235 95.1762 48.5401 95.2149 48.7671C95.2505 48.975 95.2225 49.1941 95.2225 49.4099C94.3946 50.12 93.8624 51.0246 93.4544 52.0325C92.7921 52.14 92.12 52.2495 91.4897 52.3523Z" fill="#FCB912"/>
<path fill-rule="evenodd" clip-rule="evenodd" d="M1.687 2.08187C1.8835 1.8142 2.03651 1.59121 2.20612 1.38087C2.26819 1.30457 2.36388 1.2508 2.45283 1.20098C2.70627 1.05904 2.88735 1.46034 3.17083 1.28559C3.39303 1.14879 3.65319 1.02583 3.90662 1.00132C4.11696 0.981152 4.42891 1.23459 4.54198 1.15314C4.79384 0.971663 4.94447 0.917101 5.16351 1.16263C5.20423 1.2077 5.35329 1.1737 5.4462 1.15116C6.13336 0.985501 6.13296 0.983524 6.50066 1.65131C6.55087 1.5066 6.59436 1.38166 6.67344 1.15353C6.78217 1.44769 6.88892 1.65684 6.93399 1.87825C6.98934 2.14869 7.00278 2.42901 7.01543 2.70577C7.02848 2.98411 7.0182 3.26364 7.17437 3.55028L7.27875 2.51362C7.31552 2.51203 7.35269 2.51045 7.38985 2.50927C7.41002 2.69272 7.4456 2.87617 7.44679 3.06002C7.45272 3.99231 7.40883 4.92697 7.46181 5.8561C7.50886 6.6757 7.3685 7.41782 6.90552 8.09549C6.73195 7.92943 6.56748 7.67758 6.36979 8.07928C6.15352 8.51814 5.80718 8.48493 5.35961 8.28369C5.28528 8.7609 5.25168 9.32352 4.46133 9.14362V7.94841C4.40874 7.93813 4.35576 7.92745 4.30318 7.91678C4.17785 8.32441 4.05291 8.73204 3.92402 9.15153C3.57095 8.9151 3.28154 8.66364 3.33886 8.16626C3.35468 8.02669 3.19179 7.87408 3.1392 7.7183C2.91186 7.04063 2.91542 7.03905 2.3528 7.02284C2.24526 7.01968 2.13772 7.02245 2.03018 7.02245H1.73484C1.46203 6.74964 1.21611 6.48751 0.953185 6.24396C0.392942 5.72641 0.214629 5.04123 0.12488 4.32917C0.080598 3.9761 0.156905 3.60722 0.106693 3.25573C0.0513404 2.86827 0.251004 2.58202 0.42734 2.30921C0.778826 1.76557 0.970582 1.74976 1.687 2.08187Z" fill="#FCB912"/>
<path fill-rule="evenodd" clip-rule="evenodd" d="M64.5674 10.6161C64.1076 10.9284 63.6648 11.2416 63.2034 11.5235C63.1587 11.5507 62.9982 11.3882 62.825 11.2673C62.719 11.4574 62.6471 11.6318 62.5348 11.7741C62.4028 11.9422 62.2331 12.0805 62.0833 12.2351C61.7796 12.5479 61.4871 12.8962 61.0383 12.421C61.0039 12.385 60.8995 12.4206 60.8288 12.4131C60.3247 12.3585 59.8443 12.4842 59.337 12.0786C58.9286 11.752 58.4087 11.5262 58.0248 11.1253C57.665 10.7489 57.2926 10.3955 57.0415 9.91785C56.6564 9.18444 56.2761 8.45932 56.4132 7.5986C56.4476 7.38272 56.5959 7.18464 56.7299 6.89563C57.0012 7.11782 57.1846 7.26807 57.3989 7.44401C57.5745 6.86162 57.5385 6.18475 58.0782 5.67155C58.2897 5.8297 58.4941 5.98231 58.7491 6.17288V5.38649C59.4576 5.2655 60.1013 5.02195 60.8114 5.06465C61.2186 5.08917 61.5705 5.21806 61.8283 5.46517C62.1596 5.78226 62.5652 6.0092 62.8357 6.41564C63.08 6.78334 63.4141 7.09094 63.6707 7.46971C64.0918 8.09242 64.2341 8.8203 64.5421 9.48294C64.6892 9.79885 64.5674 10.2401 64.5674 10.6161Z" fill="#FCB912"/>
<path fill-rule="evenodd" clip-rule="evenodd" d="M18.9021 31.2298V33.5435C19.1168 32.9587 19.0797 32.368 19.0979 31.7805C19.105 31.5441 18.9931 31.2499 19.2797 31.1088C19.5759 30.9625 19.8886 30.8178 20.2081 30.7707C20.318 30.7545 20.5271 31.0147 20.5896 31.1851C20.6568 31.3682 20.605 31.5947 20.605 31.8256C20.7837 31.7509 20.8901 31.6643 20.9854 31.675C21.1823 31.6971 21.4527 31.8794 21.5535 31.8058C22.1138 31.3935 22.7278 31.6643 23.307 31.6319C23.5691 31.6172 23.9657 31.7924 24.0914 32.0051C24.3998 32.529 25.0221 32.6891 25.3483 33.3055C25.359 33.5688 25.3938 33.8942 25.6674 34.2445C26.026 34.7035 26.332 35.2736 26.2209 35.9454C26.1691 36.2577 26.2118 36.5855 26.2118 36.9662C25.4768 37.4023 24.7122 37.8262 23.9791 38.299C23.2121 38.794 22.5143 38.4615 21.8615 38.1195C21.3851 37.8697 20.7458 37.7526 20.5849 37.0872C19.5197 36.608 19.3303 35.4856 18.7618 34.6375C18.3795 34.0674 18.3913 33.4039 18.283 32.8006C18.1936 32.302 18.5455 31.7244 18.7021 31.1819C18.7689 31.1977 18.8357 31.214 18.9021 31.2298Z" fill="#FCB912"/>
<path fill-rule="evenodd" clip-rule="evenodd" d="M39.7656 42.8963C39.3117 42.4424 38.8306 41.9612 38.2889 41.4195C38.2889 41.0609 38.2518 40.6335 38.3079 40.2188C38.3292 40.0646 38.5518 39.9088 38.7175 39.8183C38.7804 39.7835 38.9421 39.9298 39.0599 39.9942C39.2165 39.6843 39.3082 39.2648 39.8376 39.3668C39.936 39.3861 40.0756 39.3921 40.1428 39.3379C40.4065 39.1244 40.6936 38.9066 41.0308 39.0003C41.6354 39.1687 42.3091 39.2671 42.7804 39.6843C43.7118 40.5094 44.5975 41.4061 45.0613 42.5978C45.3376 43.3082 45.5871 44.0421 45.7207 44.7885C45.7789 45.1151 45.6907 45.5634 45.3186 45.8236C44.7062 46.2526 44.1167 46.716 43.4908 47.124C43.2777 47.2628 42.9772 47.3588 42.7286 47.3371C41.1617 47.2015 40.0452 46.4641 39.5822 44.6944C39.5146 44.4366 39.3529 44.1682 39.3877 43.927C39.4383 43.5779 39.6288 43.2485 39.7656 42.8963Z" fill="#FCB912"/>
<path fill-rule="evenodd" clip-rule="evenodd" d="M42.4541 81.8522C42.4114 81.6359 42.3687 81.4201 42.326 81.2038C42.3232 82.0618 41.4174 82.3828 41.2201 83.1123C41.1497 83.3732 40.7639 83.4894 40.6041 83.3443C40.3436 83.1087 40.1661 83.2807 40.019 83.3764C39.628 83.631 39.2958 83.6065 38.8965 83.3732C37.7456 82.7003 36.5583 82.0819 35.8798 80.8484C35.0622 80.4059 34.823 79.5073 34.3149 78.8241C34.0678 78.4919 33.9892 78.0345 33.8168 77.5885C34.1173 77.1508 34.5537 77.2667 35.0816 77.53C35.0306 77.2813 35.0444 77.0524 34.94 76.9112C34.7957 76.7171 34.9499 76.6408 35.0318 76.6064C35.4034 76.451 35.7877 76.3372 36.0937 76.0438C36.1684 75.9718 36.38 76.0003 36.5112 76.0398C36.7457 76.111 36.9465 76.2609 37.2071 76.0489C37.281 75.9892 37.5214 76.1086 37.6724 76.1751C38.9705 76.7452 40.1451 77.46 40.9137 78.7252C41.0173 78.896 41.2506 79.0771 41.4249 79.2396C41.9251 79.7042 42.0188 80.381 42.4058 80.882C42.6628 81.2153 42.6067 81.5078 42.4541 81.8522Z" fill="#FCB912"/>
<path fill-rule="evenodd" clip-rule="evenodd" d="M107.904 31.5811C107.932 31.3822 107.961 31.1829 107.992 30.9639C108.071 31.0208 108.14 31.0434 108.158 31.0872C108.435 31.7633 108.779 32.4113 108.942 33.1345C109.044 33.5892 109.174 34.0245 108.734 34.3787C108.434 34.6199 108.738 35.3126 108.064 35.2738C107.746 35.7843 107.237 35.7333 106.75 35.6985C106.64 36.0401 106.571 36.373 106.428 36.6699C106.266 37.0044 105.749 37.0989 105.195 36.9407C105.069 36.9048 104.947 36.7818 104.831 36.7921C103.933 36.8704 103.935 36.8771 103.557 36.1694C103.369 35.8163 103.141 35.479 102.995 35.1094C102.817 34.6586 102.54 34.3771 102.085 34.1826C101.409 33.8936 100.97 33.3076 100.854 32.6106C100.748 31.9796 101.044 31.4008 101.607 30.9461C101.886 31.3106 102.164 31.674 102.555 32.1832C102.555 31.6621 102.549 31.3114 102.556 30.9611C102.563 30.6128 102.601 30.684 103.152 30.4357C103.546 30.2581 104.117 30.4732 104.343 29.9268C104.732 29.9118 105.121 29.8976 105.51 29.8825C106.228 29.8541 106.866 29.9324 107.201 30.731C107.334 31.0473 107.652 31.2861 107.904 31.5811Z" fill="#FCB912"/>
<path fill-rule="evenodd" clip-rule="evenodd" d="M1.60128 36.82C0.75044 36.6358 0.451538 36.0324 0.374045 35.5022C0.274806 34.8242 0.0450948 34.1596 0.100052 33.4428C0.171219 32.5148 0.166079 31.5734 0.0964932 30.6455C0.0628865 30.1952 0.351904 29.8619 0.345183 29.4408C0.343601 29.3313 0.49582 29.1194 0.567777 29.1237C1.12288 29.1553 1.38659 28.5544 1.96858 28.5508C2.35407 28.5488 2.73758 28.1875 3.17012 27.9613C3.59633 28.3875 4.50292 27.8605 4.84848 28.8003C4.62232 29.4606 5.18573 30.0406 5.3767 30.7171C5.40319 30.8115 5.50242 30.8958 5.50321 30.9851C5.51231 32.0506 5.50875 33.1158 5.50875 34.273C5.33637 34.12 5.26164 34.054 5.07621 33.8891C5.13433 34.1394 5.12326 34.3312 5.20866 34.396C5.2996 34.4656 5.49135 34.3885 5.62024 34.4316C5.67876 34.451 5.70999 34.6055 5.71632 34.7012C5.71948 34.7451 5.6242 34.842 5.58941 34.8349C5.32846 34.7839 5.07107 34.7127 4.78917 34.6423C4.59663 35.059 4.39103 35.5038 4.23763 35.8363C3.94386 35.8146 3.76832 35.8011 3.59317 35.7881C3.90037 36.0981 3.54731 36.2096 3.4196 36.4001C3.28952 36.5935 3.19424 36.8101 3.09105 37.0027C2.41259 36.9291 2.15955 36.4919 1.97807 35.9126C1.84958 36.2226 1.73373 36.5006 1.60128 36.82Z" fill="#FCB912"/>
<path fill-rule="evenodd" clip-rule="evenodd" d="M80.9726 86.405C80.4147 86.3892 79.8869 86.2386 79.6172 86.8569C79.1618 86.2568 79.108 85.8309 79.5718 85.3541C79.892 85.0252 80.1031 84.6144 80.5112 84.3301C80.8682 84.081 80.9995 83.5303 81.3071 83.1796C81.5435 82.9099 81.8985 82.7439 82.201 82.5323C82.2955 82.6245 82.3975 82.7249 82.5584 82.8826C82.3876 83.004 82.22 83.1234 82.0519 83.2424C82.0705 83.2855 82.0895 83.3286 82.1081 83.3717C82.354 83.333 82.5995 83.2942 82.8759 83.2507C82.9494 83.361 83.0348 83.6441 83.2179 83.7394C84.3174 84.3119 85.0192 85.2675 85.6874 86.2485C85.9068 86.5703 85.9823 86.9866 86.1587 87.3428C86.594 88.2233 86.7063 88.3858 86.5738 89.1861C86.4781 89.7645 86.3726 90.3813 85.9183 90.8526C85.7388 91.0384 85.5474 91.3069 85.5379 91.5449C85.5142 92.1458 85.1841 92.2419 84.6986 92.2111C84.5629 92.2024 84.4194 92.2198 84.2874 92.2554C83.4405 92.4831 83.3531 92.4594 82.9308 91.8102C82.3054 90.849 82.0065 89.7499 81.6427 88.6816C81.3857 87.9268 81.1896 87.1507 80.9726 86.405Z" fill="#FCB912"/>
<path fill-rule="evenodd" clip-rule="evenodd" d="M67.2611 74.575C66.6621 74.235 66.0556 73.9372 65.5673 73.445C64.6576 72.5262 63.681 71.6654 62.8416 70.6865C61.9591 69.6573 61.0249 68.6428 60.4923 67.4361C60.5485 66.9597 61.1692 67.4658 61.181 66.9036C61.1846 66.743 61.578 66.5881 61.7962 66.4358C62.3379 66.0579 62.6404 65.9946 63.035 66.4145C63.4244 66.8292 63.8747 66.9779 64.3844 67.0858C65.1715 67.2527 65.7148 67.8572 66.3885 68.2292C67.1093 68.627 67.6229 69.2675 68.2084 69.8238C68.5117 70.1116 68.8884 70.3326 69.149 70.6513C69.4111 70.9719 69.6519 71.3574 69.7448 71.7516C69.801 71.9916 69.6207 72.3538 69.4372 72.5677C69.2107 72.8314 69.1035 73.2121 68.707 73.3398C68.4777 73.4134 68.5101 73.6696 68.4654 73.8807C68.414 74.1231 68.3464 74.418 67.9257 74.1136C67.6316 73.9013 67.384 74.2025 67.2611 74.575Z" fill="#FCB912"/>
<path fill-rule="evenodd" clip-rule="evenodd" d="M110.67 68.3394C109.442 67.8333 108.913 66.8923 108.388 65.9778C107.927 65.174 107.506 64.337 107.163 63.4763C106.821 62.6168 106.225 61.8023 106.491 60.7205C107.268 61.2622 107.203 62.2977 107.95 62.99C107.813 61.8948 107.245 61.0487 106.962 59.895C107.354 60.1101 107.496 60.188 107.67 60.2833C107.704 60.0955 107.739 59.8986 107.774 59.7025C108.099 59.6408 108.419 59.5799 108.798 59.5079C108.898 59.6685 109.03 59.9057 109.187 60.1255C109.797 60.9807 109.801 60.9767 110.909 61.3709C111.033 61.4152 111.149 61.4872 111.261 61.5583C112.12 62.1008 112.902 62.712 113.374 63.655C113.549 64.0037 113.787 64.6442 113.776 65.0155C113.774 65.1025 113.847 65.2045 113.91 65.278C114.071 65.465 113.998 65.6244 113.832 65.7188C113.347 65.992 113.137 66.5298 112.707 66.8516C112.524 66.9888 112.491 67.1714 112.458 67.398C112.412 67.7064 111.807 68.1061 111.525 68.0413C111.351 68.0009 111.238 67.6807 111.001 67.9167C110.876 68.0409 110.781 68.1951 110.67 68.3394Z" fill="#FCB912"/>
<path fill-rule="evenodd" clip-rule="evenodd" d="M75.7529 43.211C75.5647 43.2423 75.3674 43.2747 75.095 43.3198C75.2025 43.5214 75.2792 43.6645 75.3595 43.8148C74.8475 44.3268 74.3145 44.8597 73.765 45.4097C73.6764 45.4097 73.5681 45.3935 73.4661 45.4121C72.2566 45.6359 71.4512 44.9495 70.7795 44.122C70.2548 43.4755 69.8037 42.7635 69.4526 41.9866C69.2336 41.5015 69.0379 41.0547 69.1945 40.3956C69.5614 41.2022 69.8883 41.9201 70.2153 42.6385C70.2734 42.6196 70.3315 42.601 70.3901 42.582C70.3636 42.4452 70.3596 42.2985 70.3066 42.1728C70.088 41.6533 69.8393 41.1456 69.6333 40.6217C69.542 40.3897 69.3463 40.1006 69.8448 39.9927C69.9986 39.9595 70.0888 39.6278 70.2062 39.4313C70.309 39.2589 70.4086 39.0845 70.4901 38.9454C70.9942 38.8991 70.9989 39.3399 71.3133 39.5218C71.2401 39.2443 71.167 38.9667 71.0705 38.6014C71.2318 38.4737 71.4473 38.3029 71.6628 38.1317C71.7988 38.2669 71.9791 38.4824 72.1463 38.085C72.3278 37.6557 72.5958 37.4884 73.0304 37.7703C73.0699 37.796 73.1517 37.8158 73.1778 37.7944C73.6811 37.3797 73.9777 37.7929 74.2105 38.1099C74.7664 38.8679 75.0282 39.778 75.3611 40.6439C75.4394 40.8471 75.6098 41.3243 75.0365 41.3473C75.0041 41.3484 74.9792 41.5268 74.9511 41.6224C75.0705 41.6513 75.2539 41.7438 75.2994 41.698C75.6208 41.3757 75.794 41.7964 75.7624 41.8703C75.569 42.3246 76.017 42.7635 75.7529 43.211Z" fill="#FCB912"/>
<path fill-rule="evenodd" clip-rule="evenodd" d="M71.8483 20.2016C71.9748 20.3282 72.1017 20.4551 72.2943 20.6472C72.3295 20.3424 72.3587 20.0909 72.3908 19.8165C72.8344 19.7236 73.2918 19.6066 73.7564 19.5378C74.0371 19.4963 74.3336 19.4975 74.6135 19.5406C74.827 19.5738 74.6594 19.9715 75.0575 20.0063C75.3149 20.0289 75.5126 20.4661 75.6957 20.7706C75.8443 21.0177 75.6217 21.5526 76.1863 21.5206C76.2057 21.8705 76.2251 22.2208 76.2452 22.5707C76.2468 22.6047 76.2547 22.6383 76.2599 22.6723L77.8619 24.2744C78.0335 24.2744 78.2154 24.2522 78.389 24.2795C78.6566 24.3226 78.9448 24.5879 78.8077 24.7524C78.5024 25.1181 79.0496 25.3707 78.8326 25.6692C77.9987 25.9191 77.7358 25.9468 77.0573 25.8282C77.2273 26.1955 77.3752 26.5157 77.561 26.9182C77.4527 27.0222 77.31 27.2756 77.1692 27.2749C76.2808 27.2681 75.3458 27.4935 74.5538 26.8629C74.3392 26.6917 74.0798 26.5577 73.9129 26.3485C73.5322 25.8717 73.1914 25.3628 72.8439 24.8599C72.6727 24.612 72.5264 24.3463 72.3619 24.0933C72.1073 23.7015 72.1828 23.1369 71.7159 22.8566C71.7866 22.3813 71.5186 22.0219 71.3474 21.6119C71.1145 21.0549 71.2588 20.5219 71.8483 20.2016Z" fill="#FCB912"/>
<path fill-rule="evenodd" clip-rule="evenodd" d="M38.5709 4.21925C38.9911 4.21925 39.2786 4.21886 39.5656 4.21925C39.9503 4.22004 40.3666 4.1556 40.4548 4.71149C40.4643 4.77317 40.6082 4.86766 40.677 4.85778C41.1325 4.79017 41.2507 5.22073 41.5294 5.41012C42.2858 5.9241 42.3973 6.77059 42.5863 7.55343C42.6942 7.99981 42.5499 8.32006 42.0418 8.6241C41.4717 8.96531 40.7581 9.17723 40.3666 9.79717C40.0211 9.80389 39.7384 10.3444 39.3347 9.91183C39.2762 9.84936 39.1465 9.82841 39.0504 9.82999C37.6896 9.85608 36.8379 9.07483 36.1267 8.03302C35.7657 7.5048 35.3138 7.03273 35.1722 6.38234C35.1141 6.11546 35.0801 5.84186 35.0611 5.56945C35.0544 5.4801 35.107 5.32511 35.1695 5.30257C35.7171 5.10687 36.1152 4.63993 36.6462 4.44976C37.3009 4.2157 38.0011 4.14532 38.5709 4.21925Z" fill="#FCB912"/>
<path fill-rule="evenodd" clip-rule="evenodd" d="M36.8426 56.5211C37.0004 56.769 37.1162 56.9517 37.3416 57.3063C37.3922 56.9307 37.4115 56.8022 37.4262 56.6733C37.4736 56.2459 37.4728 56.2467 38.0129 56.1918C38.0805 56.1847 38.1845 56.1937 38.2086 56.1554C38.4549 55.7671 38.8396 55.6584 39.2279 55.7754C39.6679 55.9079 40.1404 56.0739 40.4828 56.3626C41.8188 57.4886 42.6048 58.9977 43.2152 60.599C43.3188 60.8722 43.2298 61.2185 43.2298 61.5269C43.0697 61.5091 42.944 61.4953 42.8179 61.4811C42.8452 61.8677 42.7578 62.1544 42.3055 62.2457C42.1699 62.2734 41.9844 62.4758 41.971 62.6122C41.9255 63.078 41.4471 62.851 41.2803 63.0934C41.0138 62.6692 40.5552 63.1827 40.2555 62.8795C39.9684 62.5893 39.5754 62.3655 39.3856 62.0247C38.9677 61.2739 38.5676 60.4926 38.3229 59.675C38.1979 59.2567 38.0125 58.9787 37.6903 58.789C37.1672 58.4818 36.7608 58.0923 36.5054 57.5388C36.2922 57.0766 36.2832 57.081 36.8426 56.5211Z" fill="#FCB912"/>
<path fill-rule="evenodd" clip-rule="evenodd" d="M57.0511 43.9802C57.0511 43.8731 57.0254 43.724 57.0602 43.5904C57.0835 43.501 57.2365 43.4401 57.2499 43.3543C57.2646 43.2606 57.1547 43.1531 57.1535 43.0511C57.1527 42.9606 57.28 42.8495 57.2551 42.7826C57.2096 42.6597 57.1076 42.5458 57.0028 42.4604C56.9332 42.4035 56.8174 42.4027 56.6743 42.3639C56.7415 42.5976 56.7957 42.7858 56.8502 42.9744C56.4695 42.7423 56.0464 42.5573 56.2326 41.9978C56.39 42.065 56.5446 42.1319 56.7364 42.2141C56.798 41.5408 56.1737 41.8911 55.9333 41.5724C56.2852 41.6139 56.5197 41.3716 56.8735 41.4186C57.0376 41.4403 57.2511 41.0916 57.5026 40.8536C57.8517 41.1387 58.2431 41.4577 58.701 41.8314C58.7456 41.5582 58.7777 41.3636 58.8164 41.1268C59.3339 41.0268 59.8645 40.9244 60.4011 40.8208C60.6766 41.1727 60.8921 41.4937 61.1546 41.7701C61.3824 42.0089 61.6955 42.1682 61.9149 42.413C62.5341 43.1041 62.8148 43.9767 63.0694 44.8398C63.1608 45.1486 63.2612 45.6372 62.6709 45.7199C62.6737 46.2868 62.0759 46.3714 61.8062 46.7308C61.4682 47.1808 60.8704 47.2583 60.2251 46.9977C59.2588 46.6075 58.6239 45.8531 58.0067 45.1185C57.6979 44.7504 57.3512 44.4033 57.0511 43.9802Z" fill="#FCB912"/>
<path fill-rule="evenodd" clip-rule="evenodd" d="M74.8208 57.9632C74.9948 58.0225 75.1628 58.0795 75.3554 58.1451C75.3945 57.2381 74.4571 56.9839 74.3266 56.1489C74.5164 56.2327 74.671 56.2683 74.7829 56.3572C74.9624 56.5003 75.1134 56.6783 75.3372 56.902C75.2609 56.4474 75.2102 56.343 74.9509 56.0318C75.5178 55.3462 75.5178 55.3462 76.1872 55.3439C76.5553 55.7586 76.8696 56.305 77.3413 56.5929C77.862 56.9111 78.0154 57.4544 78.3993 57.8438C78.7662 58.2167 79.0098 58.7243 79.2529 59.2007C79.3866 59.4617 79.5 59.795 79.4566 60.0694C79.4012 60.4161 79.2533 60.9257 79.0082 61.0242C78.6049 61.1867 78.6951 61.4718 78.5681 61.7169C78.3942 62.0518 78.1562 62.3776 77.7197 62.4495C77.4647 62.4914 77.161 62.6859 76.974 62.6017C76.5189 62.3965 76.0488 62.1352 75.7124 61.7766C75.0774 61.0997 74.5096 60.3552 73.9664 59.6008C73.83 59.4119 73.8929 59.0797 73.8525 58.7061C74.0336 58.8524 74.1056 58.9101 74.2582 59.0331C74.1791 58.4831 74.6599 58.2945 74.8208 57.9632Z" fill="#FCB912"/>
<path fill-rule="evenodd" clip-rule="evenodd" d="M69.1519 97.5086C68.8573 97.3469 68.7154 97.2691 68.5778 97.1931C68.3355 98.0689 68.2754 98.1144 67.5593 97.7989C67.7483 98.2389 67.8998 98.5908 68.0646 98.9735C67.8776 99.0818 67.6863 99.1933 67.4929 99.3056C67.1434 98.9565 66.7888 98.6019 66.4013 98.214C66.168 98.7394 66.8101 98.9822 66.7469 99.4895C66.1708 99.5697 65.8367 99.1779 65.505 98.8173C65.3239 98.6204 65.2259 98.3457 65.0392 98.1559C64.2074 97.3114 63.4601 96.3984 62.7635 95.4416C62.701 95.3558 62.6144 95.287 62.5369 95.2127C62.117 94.8122 61.677 94.4251 61.6458 93.7724C62.0648 93.5158 62.2874 93.9112 62.5725 94.1559C62.8623 93.6763 62.1918 93.6122 62.2218 93.2588C62.2475 92.8326 63.0584 93.3762 62.8524 92.6796H64.02C64.3541 92.9148 64.6929 93.1477 65.025 93.3893C65.3583 93.6316 65.5785 93.9799 65.9865 94.1772C66.3827 94.3694 66.6452 94.8225 66.994 95.1297C67.2213 95.3301 67.3656 95.6057 67.729 95.6959C67.9919 95.7607 68.1322 96.1596 68.5316 96.1082C68.6427 96.0936 68.8431 96.2945 68.8997 96.4372C69.0076 96.7092 69.0408 97.0101 69.1519 97.5086Z" fill="#FCB912"/>
<path fill-rule="evenodd" clip-rule="evenodd" d="M61.7431 25.3931C62.114 25.4176 62.3702 25.2259 62.7094 25.4706C62.537 25.5299 62.4121 25.573 62.2757 25.6201C62.403 26.0522 62.5445 26.4816 62.6485 26.9196C62.675 27.0319 62.6161 27.2537 62.5382 27.2866C62.1057 27.4692 61.9748 27.9346 61.6379 28.1896C61.4889 28.3027 61.2655 28.3394 61.0706 28.3616C60.9729 28.3722 60.8579 28.2248 60.7602 28.235C60.6412 28.2477 60.5321 28.3517 60.4068 28.4229C60.2217 27.7689 60.2312 27.7424 59.5025 27.4941C59.0664 27.3455 58.9759 26.9169 58.6667 26.6472C58.5975 26.7947 58.5307 26.937 58.456 27.0968C58.3473 26.9829 58.1642 26.8793 58.1646 26.7765C58.1701 25.492 58.169 25.4631 57.5826 24.6933C57.2521 25.2741 57.8855 25.6102 57.9199 26.1783C57.7629 26.1538 57.5284 26.172 57.5012 26.1052C57.2256 25.4354 56.8057 24.8028 57.2363 23.9994C57.3699 23.7499 57.394 23.6191 57.6941 23.6139C57.8791 23.6112 58.078 23.5024 58.2429 23.3981C58.6703 23.128 59.0819 22.8339 59.5385 22.5227C59.6429 22.6785 59.7394 22.8228 59.716 22.7876C60.0762 23.0387 60.4518 22.3626 60.5119 23.0675C60.5293 23.2676 60.9765 22.7904 60.9765 23.3142C60.9765 23.5167 61.3485 23.7195 61.5355 23.9065C61.4687 24.0797 61.4055 24.2449 61.3418 24.4102C61.3948 24.447 61.4478 24.4838 61.5012 24.5205C61.5949 24.3422 61.6886 24.1639 61.8068 23.9397C61.9993 24.2671 62.1112 24.4565 62.2579 24.7052C62.0986 24.9179 61.921 25.1555 61.7431 25.3931Z" fill="#FCB912"/>
<path fill-rule="evenodd" clip-rule="evenodd" d="M25.4995 57.6006C25.2512 57.2875 25.0547 57.0396 24.8365 56.7636C24.7254 56.991 24.6546 57.1353 24.5625 57.3235C24.1477 57.1289 23.8686 56.8079 23.631 56.473C23.1059 55.7325 22.6999 54.9156 22.1677 54.1739C21.8403 53.7181 21.821 53.1452 21.9503 52.5521C22.4417 52.4525 22.5481 53.0301 22.9577 53.176V52.1263C23.7318 52.0172 24.4779 51.912 25.1619 51.8159C25.8795 52.4604 26.3519 53.1566 26.6868 53.9608C26.8782 54.4191 27.2724 54.763 27.3922 55.2873C27.4396 55.4945 27.1739 55.7732 27.5009 55.9274C27.5064 55.9298 27.4036 56.182 27.4005 56.1808C26.8667 55.9883 26.6872 56.7624 26.1736 56.6383C26.1404 56.63 26.0495 56.8285 25.9985 56.9372C25.9419 57.0566 25.9166 57.1934 25.8471 57.3033C25.7957 57.3855 25.696 57.4369 25.4995 57.6006Z" fill="#FCB912"/>
<path fill-rule="evenodd" clip-rule="evenodd" d="M49.382 70.6414C49.5362 70.998 49.6484 71.2578 49.809 71.6282C49.911 71.3582 49.958 71.2345 50.0078 71.1032C50.0561 71.1328 50.1351 71.1534 50.1454 71.1922C50.2427 71.5618 50.4182 71.8777 50.6851 72.1584C50.8448 72.3265 50.9603 72.5427 51.069 72.7511C51.2608 73.12 51.5328 73.3718 51.9732 73.4501C52.0424 73.3102 52.1136 73.1655 52.1468 73.0982C52.3508 73.2509 52.5726 73.4173 52.7379 73.5411C52.7379 73.6755 52.7521 73.7332 52.7359 73.7439C52.5406 73.8708 52.3409 73.9906 52.1587 74.1021C52.2116 74.3966 52.2591 74.6635 52.3307 75.0632C52.0076 74.9063 51.8309 74.8201 51.5763 74.6959C51.4351 74.9798 51.2936 75.2653 51.1414 75.5721C50.9967 75.5883 50.8271 75.6081 50.6195 75.6314V76.1106C50.0778 76.5162 49.6346 76.4617 49.1649 76.0335C48.6533 75.5669 48.0764 75.1728 47.5546 74.6173C47.774 74.4722 47.9859 74.3322 48.2184 74.1788C48.0998 73.7439 47.8867 73.3556 47.5795 72.9761C47.2723 72.5961 47.1038 72.1035 46.8828 71.6757C47.1987 71.2862 47.4482 71.5745 47.738 71.6963C47.7503 71.5875 47.8005 71.4717 47.7661 71.3934C47.5498 70.9071 47.6435 70.6667 48.1017 70.6457C48.5319 70.6256 48.9637 70.6414 49.382 70.6414Z" fill="#FCB912"/>
<path fill-rule="evenodd" clip-rule="evenodd" d="M18.6935 74.9051C18.8742 75.1724 19.0217 75.3911 19.206 75.6635C19.2538 75.5144 19.3194 75.4183 19.3044 75.3381C19.2309 74.9486 19.1356 74.5635 19.0359 74.1243H19.6626C19.7168 74.237 19.7832 74.3749 19.9145 74.6482V73.7673C20.037 73.7242 20.1414 73.7111 20.2145 73.657C20.3818 73.5324 20.6467 73.2497 20.674 73.2719C20.948 73.4972 21.2864 73.3612 21.5521 73.4632C21.9483 73.615 22.3247 73.8799 22.3195 74.3852C22.3179 74.5363 22.1179 74.7043 22.1479 74.8312C22.1724 74.9344 22.4492 74.9573 22.5318 75.074C22.5994 75.1693 22.605 75.4247 22.5354 75.4804C22.2559 75.7034 22.3175 75.992 22.3365 76.2625C22.3606 76.6001 22.2128 76.8053 21.9131 76.8903C21.5928 76.9812 21.5181 77.1864 21.4509 77.4929C21.3556 77.9258 21.0587 78.2136 20.5565 78.1923C20.383 78.1852 20.2031 78.1891 20.0347 78.2259C19.6061 78.3196 19.066 78.2168 18.9324 77.9025C18.6062 77.1354 18.1341 76.4107 18.2219 75.5081C18.2563 75.1562 18.4682 75.0562 18.6935 74.9051Z" fill="#FCB912"/>
<path fill-rule="evenodd" clip-rule="evenodd" d="M53.2723 55.5065C53.5404 55.5852 53.8203 55.667 54.1643 55.7678C54.3102 55.4203 54.3533 55.0866 54.0457 54.7762C54.4236 54.4326 54.6751 54.9506 55.0456 54.8944C55.08 54.7074 55.1167 54.5105 55.1523 54.3176C55.4425 54.0068 55.7043 54.5801 56.055 54.3097C56.4136 54.0329 56.5041 54.6303 56.8089 54.6987C56.9801 54.7371 57.1403 54.9154 57.2624 55.0656C57.6673 55.5622 57.7305 56.2648 58.2758 56.6985C58.4062 56.8021 58.3367 57.1583 58.3659 57.475C57.7614 57.1781 57.7246 58.1373 57.1422 57.9099C56.9631 58.1998 57.1323 58.7252 56.4772 58.7881C56.408 58.6703 56.2997 58.4856 56.1455 58.2223C56.0142 58.4963 55.9506 58.6291 55.8853 58.7659C55.5184 58.8529 55.3504 58.5366 55.2298 58.3354C54.8293 57.6652 54.3106 57.1524 53.6396 56.7515C53.2269 56.5048 53.0003 56.1027 53.2723 55.5065Z" fill="#FCB912"/>
<path fill-rule="evenodd" clip-rule="evenodd" d="M48.026 26.8592C47.5172 27.2578 47.142 27.5519 46.6576 27.9319H45.7518C45.3992 27.4219 45.2845 26.7509 44.7646 26.3298C44.71 25.6197 44.219 25.1797 43.7924 24.6847C43.6568 24.5269 43.686 24.2272 43.6283 23.9339C43.7841 23.8904 43.9383 23.8935 44.0189 23.818C44.8464 23.0443 45.6261 23.4792 46.2856 24.007C46.8486 24.4573 47.3238 25.0532 47.7228 25.6597C47.9489 26.0033 47.943 26.4994 48.026 26.8592Z" fill="#FCB912"/>
</g>
</svg>
