<?xml version="1.0" encoding="UTF-8"?>
<svg viewBox="0 0 619 237" xmlns="http://www.w3.org/2000/svg">
<path d="m575.87 48.324c1e-3 -1e-4 1e-3 -2e-4 0.081 0.5711l4e-3 0.0258 0.076 0.5456-2e-3 3e-4 -9e-3 0.0013c-8e-3 0.0012-0.021 3e-3 -0.038 0.0056-0.034 5e-3 -0.086 0.0128-0.154 0.0236-0.138 0.0215-0.343 0.0548-0.61 0.1016-0.536 0.0937-1.324 0.2414-2.326 0.4565-2.003 0.4303-4.86 1.1304-8.268 2.2081-6.818 2.1561-15.826 5.8195-24.6 11.848-17.521 12.037-34.15 33.52-30.505 71.429 3.638 37.827 30.76 56.727 57.117 66.187 13.175 4.729 26.129 7.085 35.792 8.259 4.831 0.586 8.837 0.877 11.633 1.021 1.398 0.072 2.493 0.107 3.238 0.124 0.373 9e-3 0.658 0.013 0.849 0.015 0.095 1e-3 0.167 2e-3 0.215 2e-3h0.049 5e-3 0.016c1e-3 0 1e-3 0 1e-3 0.295l1e-3 0.282c1e-3 0.577 0 0.577-1e-3 0.577h-4e-3 -0.014-0.058c-0.026-1e-3 -0.06-1e-3 -0.1-1e-3 -0.036 0-0.076-1e-3 -0.122-1e-3 -0.196-2e-3 -0.486-6e-3 -0.864-0.015-0.755-0.018-1.861-0.053-3.27-0.126-2.819-0.145-6.852-0.438-11.713-1.028-9.719-1.18-22.762-3.551-36.043-8.318-26.553-9.531-54.176-28.695-57.875-67.162-3.691-38.384 13.183-60.251 30.999-72.491 8.894-6.1104 18.014-9.8173 24.906-11.997 3.447-1.0901 6.34-1.7991 8.374-2.236 1.017-0.2185 1.819-0.3689 2.369-0.465 0.275-0.048 0.486-0.0824 0.63-0.105 0.072-0.0112 0.127-0.0195 0.164-0.025 9e-3 -0.0014 0.018-0.0026 0.025-0.0037l0.018-0.0026 0.011-0.0016 3e-3 -4e-4z" clip-rule="evenodd" fill="#FC0000" fill-rule="evenodd"/>
<path d="m272.02 53.889c-9.71-13.534-40.473-40.625-86.454-41.6l-0.031 1.4419c45.483 0.9651 75.873 27.808 85.342 41.04l0.031 0.0424 0.036 0.0377c16.562 17.231 30.755 23.838 42.781 23.868 12.039 0.0296 21.7-6.5308 29.193-15.16 7.491-8.6276 12.882-19.397 16.397-27.982 1.759-4.2975 3.053-8.0584 3.907-10.746 0.427-1.3442 0.744-2.4206 0.955-3.1622 0.105-0.3708 0.184-0.658 0.237-0.8532 0.026-0.0975 0.046-0.1721 0.059-0.2226 7e-3 -0.0253 0.012-0.0446 0.016-0.0577l3e-3 -0.015 1e-3 -0.0041c1e-3 -1e-3 1e-3 -0.0016-0.698-0.1809-0.698-0.1793-0.698-0.1792-0.698-0.1786l-1e-3 0.0029-3e-3 0.013c-3e-3 0.0117-8e-3 0.0295-0.014 0.0533-5e-3 0.0174-0.01 0.0379-0.017 0.0615-0.011 0.0413-0.024 0.0922-0.04 0.1524-0.052 0.1891-0.129 0.4701-0.232 0.8344-0.208 0.7288-0.521 1.791-0.943 3.12-0.845 2.6584-2.125 6.3819-3.867 10.637-3.488 8.5195-8.808 19.126-16.151 27.583-7.343 8.4566-16.64 14.691-28.1 14.663-11.463-0.0281-25.295-6.3219-41.709-23.387z" clip-rule="evenodd" fill="#FC0000" fill-rule="evenodd"/>
<path d="m323.05 19.249c0.066-0.0422 0.215-0.1382 0.555-0.357 0.607-0.3901 0.607-0.3899 0.607-0.3895l3e-3 0.0051 0.01 0.0147c8e-3 0.0127 0.02 0.0314 0.035 0.0558 0.031 0.0488 0.076 0.1206 0.134 0.2141 0.116 0.1871 0.284 0.4611 0.492 0.812 0.417 0.7016 0.998 1.7112 1.657 2.9478 1.315 2.4704 2.948 5.8593 4.2 9.515 1.25 3.6461 2.14 7.611 1.925 11.216-0.216 3.6278-1.559 6.945-4.818 9.1437-1.695 1.1432-3.795 1.4792-6.094 1.265-2.298-0.214-4.849-0.9813-7.517-2.1127-5.336-2.2629-11.268-6.0401-16.787-10.046-5.525-4.0112-10.667-8.2754-14.425-11.535-1.88-1.6302-3.415-3.0102-4.481-3.9832-0.533-0.4865-0.949-0.8714-1.232-1.1349-0.141-0.1318-0.249-0.2332-0.322-0.3019-0.037-0.0344-0.064-0.0605-0.083-0.0782l-0.028-0.0266c-1e-3 -3e-4 -1e-3 -5e-4 0.496-0.5236 0.496-0.5231 0.496-0.5231 0.496-0.5228l0.026 0.0247c0.018 0.0169 0.045 0.0423 0.081 0.0759 0.071 0.0672 0.178 0.1672 0.318 0.2973 0.279 0.2604 0.691 0.6419 1.22 1.1249 1.058 0.966 2.584 2.3377 4.454 3.9587 3.74 3.2431 8.847 7.4786 14.328 11.457 5.487 3.9836 11.316 7.6861 16.502 9.8856 2.594 1.0998 4.993 1.8093 7.087 2.0044 2.093 0.1949 3.825-0.1278 5.154-1.0245 2.788-1.8811 3.988-4.721 4.186-8.0339 0.198-3.3353-0.627-7.0947-1.85-10.663-1.22-3.5587-2.815-6.8742-4.109-9.3046-0.647-1.2138-1.216-2.2037-1.624-2.889-0.203-0.3426-0.366-0.6088-0.478-0.7887-0.055-0.09-0.098-0.1583-0.127-0.2037-0.014-0.0228-0.025-0.0398-0.032-0.0509l-8e-3 -0.0123-2e-3 -0.0028v-5e-4c0-1e-4 0-1e-4 0.051-0.0331z" clip-rule="evenodd" fill="#FC0000" fill-rule="evenodd"/>
<path d="m376.73 75.69c-3.436-5.6263-8.21-8.8178-14.667-8.3716-6.595 0.4557-11.164 3.1339-14.334 7.0223-3.189 3.9127-4.999 9.0983-5.952 14.604-1.713 9.8939-0.628 20.592-0.053 26.259 0.065 0.646 0.124 1.227 0.172 1.734l9e-3 0.098c0.464 4.963 1.52 16.254-0.703 27.652-2.239 11.474-7.834 23.205-20.849 28.606-13.046 5.413-27.014-0.259-37.571-7.096-5.301-3.433-9.798-7.195-12.967-10.096-1.586-1.451-2.841-2.689-3.702-3.565-0.43-0.438-0.762-0.786-0.986-1.025-0.113-0.12-0.198-0.212-0.256-0.275-0.023-0.025-0.041-0.045-0.055-0.06-4.199-3.514-11.738-8.708-20.711-12.862-9.007-4.17-19.389-7.26-29.255-6.612-4.913 0.322-7.502 1.822-8.68 3.819-1.193 2.025-1.09 4.815-0.01 8.07 2.152 6.485 7.959 14.142 12.712 19.242 3.223 2.986 6.51 6.894 8.888 11.262 2.381 4.374 3.874 9.256 3.421 14.156-0.915 9.908-9.686 19.362-33.31 24.871-11.892 2.774-20.381 1.266-26.187-3.217-5.787-4.47-8.742-11.772-9.859-20.225-2.232-16.897 2.811-38.882 8.116-53.945 0.911-2.585 2.522-5.632 4.224-8.851 0.29-0.55 0.584-1.105 0.877-1.663 2.027-3.863 4.059-7.937 5.229-11.898 1.171-3.962 1.448-7.713 0.082-10.977-1.358-3.2432-4.403-6.1563-10.207-8.3157-6.278-2.3357-11.184-1.6167-15.442 0.6909-4.311 2.3368-7.992 6.3188-11.746 10.618-0.375 0.43-0.752 0.864-1.13 1.299-3.362 3.872-6.83 7.865-10.838 10.825-4.493 3.318-9.704 5.372-16.277 4.593-12.644-1.499-33.131-0.822-47.119 11.154-13.905 11.905-21.668 35.244-8.3065 79.734l-1.3813 0.415c-13.431-44.721-5.7936-68.793 8.7498-81.245 14.46-12.38 35.471-13.003 48.227-11.49 6.128 0.726 10.981-1.169 15.25-4.321 3.872-2.86 7.232-6.727 10.613-10.619 0.375-0.432 0.75-0.863 1.126-1.294 3.735-4.278 7.573-8.4588 12.145-10.937 4.625-2.5071 9.966-3.2548 16.632-0.7747 6.046 2.2496 9.476 5.3873 11.034 9.1105 1.55 3.702 1.185 7.834-0.029 11.943-1.215 4.111-3.309 8.298-5.335 12.159-0.299 0.57-0.596 1.132-0.888 1.685-1.707 3.23-3.257 6.163-4.129 8.638-5.282 14.993-10.235 36.72-8.047 53.277 1.093 8.273 3.952 15.133 9.311 19.272 5.341 4.125 13.331 5.671 24.977 2.955 23.454-5.47 31.376-14.661 32.202-23.6 0.418-4.524-0.957-9.116-3.252-13.333-2.294-4.215-5.483-8.008-8.62-10.912l-0.02-0.018-0.018-0.019c-4.793-5.139-10.788-12.993-13.044-19.791-1.125-3.391-1.376-6.69 0.137-9.257 1.529-2.594 4.706-4.189 9.828-4.525 10.205-0.67 20.841 2.523 29.955 6.742 9.121 4.223 16.785 9.505 21.069 13.097l0.038 0.032 0.033 0.037-0.023 0.021 0.023-0.021 1e-3 1e-3 4e-3 3e-3 0.015 0.017c0.013 0.015 0.033 0.037 0.061 0.067 0.055 0.059 0.137 0.148 0.246 0.264 0.218 0.232 0.542 0.572 0.964 1.002 0.845 0.861 2.082 2.08 3.647 3.512 3.13 2.865 7.562 6.572 12.777 9.95 10.475 6.783 23.887 12.097 36.234 6.974 12.378-5.137 17.792-16.305 19.986-27.551 2.184-11.193 1.143-22.317 0.68-27.267l-6e-3 -0.072c-0.047-0.497-0.105-1.072-0.171-1.715-0.574-5.65-1.683-16.553 0.067-26.658 0.975-5.6333 2.849-11.09 6.255-15.269 3.427-4.2036 8.367-7.0672 15.352-7.5499 7.122-0.4921 12.355 3.0942 15.998 9.0587 3.621 5.9291 5.713 14.255 6.651 23.456 1.877 18.412-0.835 40.645-5.559 55.078-0.834 2.546-1.745 5.158-2.674 7.819-1.704 4.886-3.466 9.936-4.907 15.041-2.222 7.866-3.643 15.738-2.878 23.079 0.763 7.315 3.697 14.118 10.233 19.886 6.556 5.785 16.783 10.57 32.199 13.726l-0.29 1.413c-15.554-3.184-26.05-8.045-32.863-14.058-6.834-6.031-9.917-13.18-10.713-20.817-0.794-7.611 0.684-15.691 2.924-23.621 1.452-5.141 3.242-10.274 4.956-15.19 0.924-2.649 1.826-5.236 2.642-7.727 4.661-14.24 7.352-36.27 5.495-54.483-0.929-9.1115-2.989-17.189-6.447-22.851z" clip-rule="evenodd" fill="#FC0000" fill-rule="evenodd"/>
<path d="m378.7 18.334c0-4e-4 1e-3 -7e-4 0.697 0.1846 0.697 0.1854 0.697 0.1852 0.697 0.1851v2e-4 0.0017l-2e-3 0.0089c-3e-3 0.0084-6e-3 0.0217-0.01 0.0396-0.01 0.036-0.023 0.091-0.041 0.1643-0.035 0.1465-0.085 0.3663-0.146 0.6535-0.121 0.5745-0.282 1.4188-0.439 2.4875-0.314 2.1382-0.61 5.1706-0.538 8.7367 0.144 7.1366 1.764 16.372 7.632 24.864 2.346 3.3946 5.48 7.1321 8.97 11.295 0.918 1.0951 1.861 2.2196 2.821 3.3751 4.592 5.5293 9.538 11.731 13.883 18.689 8.697 13.926 15.007 30.914 11.313 51.692-1.848 10.391-6.026 19.13-10.662 26.926-2.16 3.632-4.425 7.067-6.598 10.363-0.158 0.239-0.315 0.477-0.471 0.715-2.32 3.521-4.516 6.884-6.376 10.198-3.72 6.629-6.038 12.968-5.293 19.788 0.744 6.816 4.564 14.253 13.434 23.031l-1.014 1.025c-9.002-8.908-13.061-16.634-13.854-23.9-0.793-7.262 1.694-13.922 5.469-20.65 1.889-3.365 4.113-6.769 6.43-10.286 0.155-0.236 0.311-0.472 0.467-0.709 2.177-3.302 4.424-6.711 6.566-10.313 4.59-7.716 8.676-16.286 10.482-26.441 3.612-20.314-2.538-36.939-11.116-50.674-4.292-6.8729-9.187-13.014-13.77-18.532-0.945-1.1378-1.878-2.2507-2.79-3.3388-3.497-4.1705-6.689-7.9772-9.077-11.433-6.08-8.7973-7.74-18.338-7.888-25.654-0.074-3.6606 0.23-6.7742 0.553-8.9754 0.161-1.1009 0.328-1.9747 0.455-2.5757 0.063-0.3006 0.117-0.5331 0.155-0.6917 0.019-0.0794 0.034-0.1403 0.044-0.1821 6e-3 -0.0208 0.01-0.0369 0.013-0.0482l3e-3 -0.0131 1e-3 -0.0038v-0.0013z" clip-rule="evenodd" fill="#FC0000" fill-rule="evenodd"/>
<path d="m356.39 207.26c0 1e-3 1e-3 1e-3 -0.566 0.448l-0.566 0.446-5e-3 -6e-3c-3e-3 -3e-3 -6e-3 -8e-3 -0.011-0.014l-7e-3 -9e-3c-0.016-0.02-0.041-0.051-0.074-0.092-0.067-0.082-0.166-0.204-0.298-0.362-0.263-0.316-0.655-0.776-1.163-1.348-1.016-1.145-2.499-2.736-4.36-4.516-3.726-3.567-8.944-7.871-14.946-10.881-6.002-3.011-12.73-4.699-19.519-3.135-6.775 1.56-13.746 6.389-20.185 16.689l-1.223-0.764c6.582-10.529 13.84-15.663 21.084-17.331 7.23-1.665 14.311 0.153 20.49 3.252s11.515 7.508 15.296 11.128c1.894 1.812 3.404 3.432 4.442 4.6 0.519 0.584 0.92 1.056 1.192 1.383 0.136 0.163 0.24 0.29 0.311 0.377 0.027 0.034 0.049 0.061 0.066 0.082l0.014 0.018 0.013 0.017 8e-3 9e-3 7e-3 9e-3z" clip-rule="evenodd" fill="#FC0000" fill-rule="evenodd"/>
<path d="m289.1 112.58c-8.267 3.691-11.483 15.076-6.78 25.609 4.702 10.532 15.327 15.739 23.593 12.048 8.267-3.691 11.483-15.077 6.781-25.609-4.703-10.533-15.327-15.739-23.594-12.048zm-8.097 26.197c-4.908-10.992-1.727-23.391 7.509-27.514 9.236-4.124 20.591 1.784 25.499 12.777 4.907 10.992 1.726 23.39-7.51 27.514-9.235 4.123-20.59-1.785-25.498-12.777z" clip-rule="evenodd" fill="#FC0000" fill-rule="evenodd"/>
<path d="m479.09 88.046c-4.488 5.5092-4.375 12.758-0.095 16.245s11.402 2.132 15.891-3.377c4.488-5.5092 4.374-12.758 0.094-16.245-4.28-3.4868-11.402-2.1323-15.89 3.3769zm-0.824 17.139c-4.938-4.022-4.814-12.046-0.071-17.868 4.743-5.8219 12.576-7.5654 17.514-3.5428 4.938 4.0227 4.814 12.047 0.071 17.869-4.743 5.822-12.576 7.565-17.514 3.542z" clip-rule="evenodd" fill="#FC0000" fill-rule="evenodd"/>
<path d="m410.66 28.927c-5.13 15.183-6.385 33.453 8.533 46.664 7.531 6.6684 14.722 9.6918 21.691 10.244 6.98 0.5531 13.819-1.3663 20.652-4.7294 6.837-3.3655 13.622-8.1542 20.491-13.292 1.637-1.2245 3.279-2.4695 4.927-3.7189 5.249-3.9793 10.559-8.0044 15.951-11.564 14.308-9.4469 35.73-12.012 53.453-12.251 8.883-0.1195 16.878 0.3457 22.652 0.8406 2.888 0.2475 5.221 0.5025 6.834 0.6958 0.806 0.0967 1.433 0.178 1.858 0.2352 0.213 0.0286 0.375 0.0512 0.485 0.0666 0.055 0.0078 0.096 0.0137 0.124 0.0178l0.032 0.0047 0.011 0.0015c1e-3 1e-4 1e-3 1e-4 -0.104 0.7136-0.063 0.4269-0.089 0.5983-0.099 0.6672-7e-3 0.0462-7e-3 0.0462-7e-3 0.0461l-9e-3 -0.0013-0.03-0.0043c-0.026-0.0038-0.066-0.0096-0.12-0.0171-0.106-0.0151-0.266-0.0372-0.475-0.0654-0.419-0.0563-1.039-0.1367-1.838-0.2325-1.598-0.1916-3.916-0.4449-6.785-0.6908-5.74-0.492-13.686-0.9542-22.51-0.8355-17.689 0.238-38.741 2.811-52.677 12.012-5.349 3.5314-10.606 7.5166-15.847 11.49-1.655 1.2545-3.308 2.5076-4.962 3.745-6.874 5.1425-13.752 10.002-20.718 13.431-6.972 3.4317-14.077 5.4537-21.403 4.8732-7.337-0.5813-14.814-3.7661-22.533-10.602-15.58-13.797-14.137-32.834-8.944-48.205 2.602-7.7009 6.161-14.542 9.066-19.454 1.453-2.4574 2.744-4.4355 3.674-5.8007 0.464-0.68267 0.838-1.2123 1.097-1.5723 0.13-0.17999 0.23-0.31756 0.299-0.41065 0.034-0.04654 0.061-0.08196 0.078-0.106 9e-3 -0.01202 0.016-0.0212 0.021-0.0275l7e-3 -0.0093c0-5.5e-4 1e-3 -9.3e-4 0.576 0.43325 0.576 0.43418 0.576 0.43417 0.576 0.43434l-5e-3 0.00698c-4e-3 0.00525-0.01 0.01338-0.018 0.02435-0.017 0.02192-0.041 0.05519-0.074 0.09954-0.065 0.08871-0.163 0.22174-0.289 0.39702-0.252 0.35057-0.619 0.87005-1.076 1.5418-0.915 1.3437-2.189 3.2958-3.625 5.7232-2.872 4.8577-6.381 11.606-8.94 19.182z" clip-rule="evenodd" fill="#FC0000" fill-rule="evenodd"/>
<path d="m446.78 119.9c-5.727 5.549-9.981 14.879-12.024 27.354-2.033 12.399 0.899 26.347 4.369 37.238 1.732 5.437 3.592 10.094 5.019 13.392 0.714 1.649 1.319 2.957 1.745 3.851 0.212 0.448 0.381 0.792 0.495 1.024 0.058 0.115 0.102 0.203 0.131 0.262 0.015 0.029 0.026 0.051 0.033 0.065l0.011 0.02v1e-3l-0.513 0.263c-0.514 0.264-0.514 0.263-0.514 0.263l-1e-3 -1e-3 -2e-3 -5e-3 -9e-3 -0.018c-8e-3 -0.015-0.02-0.039-0.035-0.069-0.031-0.061-0.076-0.151-0.135-0.269-0.117-0.237-0.288-0.587-0.503-1.04-0.432-0.906-1.042-2.226-1.762-3.889-1.438-3.324-3.313-8.018-5.06-13.5-3.487-10.946-6.485-25.104-4.408-37.774 2.065-12.608 6.388-22.21 12.36-27.996 6.002-5.817 13.633-7.737 22.131-5.022 4.243 1.355 7.207 3.453 9.22 6.009 2.01 2.552 3.043 5.525 3.487 8.589 0.795 5.473-0.282 11.333-1.095 15.762-0.093 0.505-0.182 0.992-0.265 1.456-0.835 4.705-0.843 13.366 4.897 23.256 5.741 9.892 17.263 21.066 39.586 30.736l-0.458 1.059c-22.487-9.741-34.231-21.058-40.126-31.215-5.896-10.159-5.91-19.103-5.035-24.037v-1e-3c0.084-0.47 0.173-0.958 0.265-1.461 0.816-4.452 1.855-10.117 1.09-15.389-0.424-2.919-1.398-5.686-3.253-8.041-1.852-2.352-4.61-4.329-8.664-5.624-8.095-2.586-15.282-0.768-20.977 4.751z" clip-rule="evenodd" fill="#FC0000" fill-rule="evenodd"/>
<path d="m231.77 54.462c-12.454-3.4013-24.781-2.1709-40.743-0.5006-7.904 0.827-12.429 3.0678-14.506 5.8403-2.03 2.7094-1.864 6.1401 0.166 9.7921 2.034 3.6597 5.892 7.4206 10.972 10.563 5.07 3.1369 11.313 5.6295 18.064 6.7832 13.734 2.3471 21.595 8.8835 29.154 15.168 0.089 0.075 0.178 0.149 0.267 0.222 7.627 6.341 15.005 12.365 27.997 13.889 5.126 0.601 8.807-0.609 11.35-2.816 2.558-2.221 4.055-5.528 4.64-9.279 0.584-3.748 0.248-7.8847-0.806-11.675-1.055-3.795-2.815-7.1879-5.026-9.4816-16.457-17.071-29.098-25.11-41.529-28.505zm0.379-1.3888c12.782 3.4908 25.638 11.73 42.187 28.895 2.421 2.5113 4.276 6.1392 5.376 10.095 1.101 3.9608 1.461 8.3055 0.841 12.282-0.62 3.974-2.229 7.636-5.118 10.144-2.906 2.522-7.015 3.798-12.462 3.159-13.443-1.577-21.103-7.855-28.75-14.211l-0.224-0.187c-7.559-6.2843-15.167-12.61-28.518-14.892-6.939-1.1858-13.356-3.7466-18.58-6.978-5.214-3.2259-9.283-7.1483-11.473-11.088-2.194-3.9473-2.549-8.0318-0.06-11.355 2.443-3.2599 7.476-5.5685 15.509-6.409 15.909-1.6647 28.513-2.941 41.272 0.5437z" clip-rule="evenodd" fill="#FC0000" fill-rule="evenodd"/>
<path d="m72.97 57.873c15.282-7.2991 27.16-22.025 33.412-33.399l1.261 0.6936c-6.334 11.524-18.402 26.529-34.053 34.005-7.8398 3.7446-16.592 5.6051-25.965 4.1722-9.3725-1.4328-19.305-6.1496-29.521-15.458l0.9697-1.0642c10.049 9.156 19.729 13.717 28.769 15.099 9.0397 1.3819 17.5-0.4055 25.127-4.0482z" clip-rule="evenodd" fill="#FC0000" fill-rule="evenodd"/>
<path d="m147.95 52.539c35.839-3.4534 45.736-20.535 46.35-28.238l1.436 0.1144c-0.692 8.6681-11.422 26.066-47.648 29.557-22.336 2.1523-33.179 9.6321-42.89 17.605-1.052 0.8638-2.092 1.7348-3.133 2.6066-8.6111 7.2109-17.283 14.473-33.3 18.128-17.91 4.0872-35.175 1.7139-47.822-3.7327-6.3223-2.7227-11.52-6.2263-15.066-10.106-3.5431-3.876-5.4848-8.1844-5.143-12.482l1.4352 0.1142c-0.29966 3.7682 1.3923 7.701 4.7705 11.397 3.375 3.6921 8.3863 7.0905 14.573 9.7549 12.371 5.3277 29.324 7.6695 46.932 3.6513 15.667-3.5751 24.092-10.628 32.694-17.827 1.042-0.8719 2.086-1.7461 3.146-2.6164 9.857-8.0929 20.962-15.738 43.666-17.926z" clip-rule="evenodd" fill="#FC0000" fill-rule="evenodd"/>
<path d="m36.195 116.2c-4.2435-2.258-9.6223-3.293-13.285-3.545l0.0986-1.436c3.7835 0.26 9.3802 1.325 13.863 3.71 4.4879 2.387 8.0384 6.217 7.1991 11.989-0.9793 6.736-2.7072 12.338-4.2489 16.971-0.2225 0.669-0.4401 1.315-0.6505 1.94-1.2621 3.747-2.2633 6.719-2.4878 9.146-0.0616 0.667-0.0202 1.673 0.0778 2.979 0.0516 0.687 0.1159 1.425 0.185 2.219 0.0628 0.721 0.1296 1.487 0.1944 2.302 0.2686 3.379 0.4846 7.388 0.1171 11.271-0.3667 3.875-1.3207 7.701-3.4517 10.663-2.1555 2.997-5.4686 5.043-10.386 5.413l-0.108-1.436c4.5205-0.34 7.4339-2.188 9.3258-4.818 1.9165-2.664 2.8311-6.196 3.1871-9.957 0.3553-3.754 0.1482-7.66-0.119-11.022-0.0623-0.783-0.1289-1.549-0.1921-2.275-0.0705-0.811-0.1367-1.572-0.1877-2.252-0.0972-1.296-0.15-2.416-0.0757-3.219 0.2413-2.61 1.3086-5.775 2.564-9.497 0.2097-0.621 0.4246-1.259 0.6417-1.911 1.5331-4.608 3.2293-10.115 4.1903-16.724 0.7129-4.903-2.2128-8.257-6.4506-10.511z" clip-rule="evenodd" fill="#FC0000" fill-rule="evenodd"/>
<path d="m121.98 148.25c-3.158-4.652-8.857-7.385-20.111-6.489-8.922 0.71-15.258 4.328-19.673 9.712-4.4333 5.406-6.9712 12.642-8.1718 20.634-2.4022 15.992 0.5855 34.766 4.0973 47.183l-1.3854 0.392c-3.5417-12.523-6.5797-31.519-4.1356-47.789 1.2226-8.139 3.8258-15.655 8.4823-21.333 4.6742-5.699 11.377-9.494 20.672-10.234 11.518-0.917 17.849 1.861 21.416 7.116 1.757 2.587 2.8 5.717 3.505 9.155 0.704 3.436 1.079 7.234 1.467 11.168 0.78 7.904 1.619 16.401 5.19 24.161 3.553 7.721 9.832 14.75 21.589 19.645l-0.553 1.329c-12.084-5.031-18.637-12.316-22.344-20.372-3.674-7.983-4.532-16.685-5.305-24.525l-9e-3 -0.097c-0.39-3.951-0.759-7.671-1.445-11.02-0.686-3.347-1.68-6.27-3.286-8.636z" clip-rule="evenodd" fill="#FC0000" fill-rule="evenodd"/>
</svg>
